<svg width="400" height="400" viewBox="0 0 400 400" fill="none" xmlns="http://www.w3.org/2000/svg">
<path d="M400 199.992C400 226.255 394.827 252.261 384.776 276.525C374.725 300.789 359.993 322.836 341.421 341.407C322.85 359.978 300.802 374.709 276.537 384.76C252.271 394.81 226.264 399.983 200 399.983C173.735 399.983 147.728 394.81 123.463 384.76C99.198 374.709 77.1502 359.978 58.5785 341.407C40.0068 322.836 25.2749 300.789 15.224 276.525C5.17307 252.261 -4.61292e-05 226.255 3.08479e-10 199.991L100 199.991C100 213.123 102.587 226.126 107.612 238.258C112.637 250.39 120.003 261.414 129.289 270.699C138.575 279.985 149.599 287.35 161.732 292.376C173.864 297.401 186.868 299.987 200 299.987C213.132 299.987 226.136 297.401 238.268 292.376C250.401 287.35 261.425 279.985 270.711 270.699C279.997 261.414 287.362 250.39 292.388 238.258C297.413 226.126 300 213.123 300 199.992H400Z" fill="black"/>
<path d="M0 200.008C2.29611e-06 173.745 5.17317 147.739 15.2241 123.475C25.2751 99.2107 40.007 77.1638 58.5788 58.5928C77.1505 40.0219 99.1984 25.2906 123.464 15.2401C147.729 5.18964 173.736 0.0167374 200 0.0167847C226.265 0.0168319 252.272 5.18983 276.537 15.2404C300.802 25.291 322.85 40.0223 341.422 58.5933C359.993 77.1644 374.725 99.2113 384.776 123.475C394.827 147.74 400 173.746 400 200.009L300 200.009C300 186.877 297.414 173.874 292.388 161.742C287.363 149.61 279.997 138.586 270.711 129.301C261.425 120.015 250.401 112.65 238.269 107.624C226.136 102.599 213.132 100.013 200 100.013C186.868 100.013 173.864 102.599 161.732 107.624C149.599 112.65 138.575 120.015 129.289 129.301C120.004 138.586 112.638 149.61 107.612 161.742C102.587 173.874 100 186.877 100 200.008L0 200.008Z" fill="white"/>
</svg>
